<svg version="1" xmlns="http://www.w3.org/2000/svg" width="933.333" height="933.333" viewBox="0 0 700.000000 700.000000"><path d="M318.7 88.1c-12.5 3-22.8 13.4-26.2 26.5-1.3 5.1-1.5 14.3-1.3 62.5l.3 56.4 29.3.3 29.2.2v-88h204v204h-88l.2 29.2.3 29.3 56.4.3c63 .2 64 .2 73.8-6.3 6.8-4.5 11.8-11.3 14.3-19.5 2-6.4 2-8.5 1.8-137.5l-.3-131-3.2-6.6c-3.9-7.9-10.2-14-18.1-17.7l-5.7-2.7-131.5-.2c-74.7 0-133.1.3-135.3.8z"/><path d="M395.3 178c-10.3 5.2-15.3 12.9-16.1 24.6-.4 6.1-.1 8 2 12.6 3.4 7.4 7.9 12.2 14.6 15.5 14.5 7.1 31.9.8 39.3-14.3 3.3-6.8 3.3-17.9 0-24.4-5.6-10.9-13.6-16.1-25.6-16.8-7.4-.3-8.5-.1-14.2 2.8zM485.3 176.7c-6.1 2.1-13.6 9.2-16.3 15.5-3.4 7.7-3.3 17.5.2 24.3 7.8 15.1 24.6 21.2 39.1 14.2 22.1-10.9 22.6-41.2.8-52.4-5.3-2.8-7.3-3.3-12.9-3.2-3.7 0-8.6.7-10.9 1.6zM487.3 263.4c-13 4.2-20.9 15.1-20.7 28.6.1 11.8 6.5 21.5 17.5 26.5 5.4 2.4 7.1 2.7 13.4 2.3 12.1-.8 20.1-6.4 25.3-17.7 2.1-4.6 2.4-6.4 2-13-.3-5-1.2-9-2.6-11.6-2.5-5.1-9.8-11.9-14.9-14-5.3-2.3-14.9-2.8-20-1.1zM114.2 292.5c-2.9.8-6.6 2.2-8.4 3.1-5.1 2.6-12.7 11-15.6 17.2l-2.7 5.7v267l2.7 5.7c3.7 7.9 9.8 14.2 17.7 18.1l6.6 3.2 131 .3c129 .2 131.1.2 137.5-1.8 8.2-2.5 15-7.5 19.5-14.3 6.9-10.4 6.6-3.1 6.3-147.3-.3-127.5-.3-130-2.3-134.6-4.5-10.4-11-16.9-21.5-21.4-4.4-1.8-8.7-1.9-135-2.1-110.4-.2-131.3 0-135.8 1.2zM350 452v102H146V350h204v102z"/><path d="M194.7 380.4c-8.9 3.2-15.8 10.3-18.8 19.4-1.7 5-.7 16.9 1.9 21.7 2.6 5.1 8.4 10.6 14.2 13.6 6.2 3.2 17.5 3.3 24.1.2 18.2-8.3 23.1-31.6 9.8-46.8-4.9-5.5-13.9-9.5-21.4-9.5-3.3.1-7.7.7-9.8 1.4zM283.8 467.3c-20.9 5.9-28.5 31.8-14.1 47.8 6 6.6 11.4 9.2 20.3 9.7 6.7.4 8.5.1 13.1-2 11.3-5.2 16.9-13.2 17.7-25.3.4-6.3.1-8-2.3-13.4-6-13.4-21-20.6-34.7-16.8z"/></svg>